<svg width="24" height="24" viewBox="0 0 24 24" fill="none" xmlns="http://www.w3.org/2000/svg">
<path fill-rule="evenodd" clip-rule="evenodd" d="M14.47 2.47001C14.6106 2.32956 14.8012 2.25067 15 2.25067C15.1988 2.25067 15.3894 2.32956 15.53 2.47001L21.53 8.47001C21.6705 8.61064 21.7493 8.80126 21.7493 9.00001C21.7493 9.19876 21.6705 9.38939 21.53 9.53001L15.53 15.53C15.4613 15.6037 15.3785 15.6628 15.2865 15.7038C15.1945 15.7448 15.0952 15.7668 14.9945 15.7686C14.8938 15.7704 14.7938 15.7519 14.7004 15.7141C14.607 15.6764 14.5222 15.6203 14.451 15.549C14.3797 15.4778 14.3236 15.393 14.2859 15.2996C14.2482 15.2062 14.2296 15.1062 14.2314 15.0055C14.2332 14.9048 14.2552 14.8055 14.2962 14.7135C14.3372 14.6215 14.3963 14.5387 14.47 14.47L19.19 9.75001H9C8.31056 9.75001 7.62787 9.88581 6.99091 10.1496C6.35395 10.4135 5.7752 10.8002 5.28769 11.2877C4.80018 11.7752 4.41347 12.354 4.14963 12.9909C3.8858 13.6279 3.75 14.3106 3.75 15C3.75 15.6895 3.8858 16.3721 4.14963 17.0091C4.41347 17.6461 4.80018 18.2248 5.28769 18.7123C5.7752 19.1998 6.35395 19.5865 6.99091 19.8504C7.62787 20.1142 8.31056 20.25 9 20.25H12C12.1989 20.25 12.3897 20.329 12.5303 20.4697C12.671 20.6103 12.75 20.8011 12.75 21C12.75 21.1989 12.671 21.3897 12.5303 21.5303C12.3897 21.671 12.1989 21.75 12 21.75H9C7.20979 21.75 5.4929 21.0389 4.22703 19.773C2.96116 18.5071 2.25 16.7902 2.25 15C2.25 13.2098 2.96116 11.4929 4.22703 10.227C5.4929 8.96117 7.20979 8.25001 9 8.25001H19.19L14.47 3.53001C14.3295 3.38939 14.2507 3.19876 14.2507 3.00001C14.2507 2.80126 14.3295 2.61064 14.47 2.47001Z" fill="black"/>
</svg>
