<svg width="24" height="24" viewBox="0 0 24 24" fill="none" xmlns="http://www.w3.org/2000/svg">
<path fill-rule="evenodd" clip-rule="evenodd" d="M9.52995 2.47001C9.6704 2.61064 9.74929 2.80126 9.74929 3.00001C9.74929 3.19876 9.6704 3.38939 9.52995 3.53001L4.80995 8.25001H15C16.7902 8.25001 18.507 8.96117 19.7729 10.227C21.0388 11.4929 21.75 13.2098 21.75 15C21.75 16.7902 21.0388 18.5071 19.7729 19.773C18.507 21.0389 16.7902 21.75 15 21.75H12C11.801 21.75 11.6103 21.671 11.4696 21.5303C11.329 21.3897 11.25 21.1989 11.25 21C11.25 20.8011 11.329 20.6103 11.4696 20.4697C11.6103 20.329 11.801 20.25 12 20.25H15C15.6894 20.25 16.3721 20.1142 17.009 19.8504C17.646 19.5865 18.2248 19.1998 18.7123 18.7123C19.1998 18.2248 19.5865 17.6461 19.8503 17.0091C20.1142 16.3721 20.25 15.6895 20.25 15C20.25 14.3106 20.1142 13.6279 19.8503 12.9909C19.5865 12.354 19.1998 11.7752 18.7123 11.2877C18.2248 10.8002 17.646 10.4135 17.009 10.1496C16.3721 9.88581 15.6894 9.75001 15 9.75001H4.80995L9.52995 14.47C9.60364 14.5387 9.66274 14.6215 9.70373 14.7135C9.74472 14.8055 9.76677 14.9048 9.76854 15.0055C9.77032 15.1062 9.75179 15.2062 9.71407 15.2996C9.67635 15.393 9.62021 15.4778 9.54899 15.549C9.47777 15.6203 9.39294 15.6764 9.29955 15.7141C9.20616 15.7519 9.10613 15.7704 9.00543 15.7686C8.90473 15.7668 8.80541 15.7448 8.71341 15.7038C8.62141 15.6628 8.53861 15.6037 8.46995 15.53L2.46995 9.53001C2.3295 9.38939 2.25061 9.19876 2.25061 9.00001C2.25061 8.80126 2.3295 8.61064 2.46995 8.47001L8.46995 2.47001C8.61058 2.32956 8.8012 2.25067 8.99995 2.25067C9.1987 2.25067 9.38932 2.32956 9.52995 2.47001Z" fill="black"/>
</svg>
