<svg width="422" height="218" viewBox="0 0 422 218" fill="none" xmlns="http://www.w3.org/2000/svg">
<g clip-path="url(#clip0_1_10871)">
<path fill-rule="evenodd" clip-rule="evenodd" d="M0.5 125.639C0.5 135.075 8.149 142.724 17.585 142.724H47.035C63.541 142.724 76.921 156.105 76.921 172.612C76.921 189.118 90.303 202.499 106.809 202.499H372.373C377.995 202.499 382.553 197.941 382.553 192.319V192.318C382.553 186.696 377.995 182.138 372.373 182.138H341.212C337.252 182.138 334.042 178.928 334.042 174.968V174.963C334.042 171.003 337.252 167.793 341.212 167.793H366.421C392.887 167.793 414.341 146.339 414.341 119.873C414.341 93.4077 392.887 71.9527 366.421 71.9527H315.02C303.991 71.9527 295.05 63.0127 295.05 51.9827C295.05 40.9537 286.109 32.0117 275.08 32.0117H79.65C72.388 32.0117 66.5 37.8997 66.5 45.1617V45.1677C66.5 52.4307 72.388 58.3177 79.65 58.3177H94.3C108.172 58.3177 119.417 69.5627 119.417 83.4347C119.417 97.3067 108.172 108.554 94.3 108.554H17.585C8.149 108.554 0.5 116.203 0.5 125.639Z" fill="#4F545C" fill-opacity="0.3"/>
<path fill-rule="evenodd" clip-rule="evenodd" d="M118.073 192H133.485C133.479 191.874 133.455 191.75 133.455 191.623V148.191C133.455 142.157 139.702 136.672 150.284 132.322V131.57C150.284 126.056 154.77 121.57 160.284 121.57H162.936C163.136 118.72 163.954 116.042 165.278 113.674V94.788C165.117 95.125 164.78 95.361 164.382 95.361C163.829 95.361 163.382 94.914 163.382 94.361V25H102.725V30.13C105.655 30.57 108.223 32.247 109.781 34.865C111.626 37.968 111.669 41.699 109.895 44.843C109.72 45.153 109.395 45.346 109.04 45.352C108.984 45.353 108.928 45.353 108.872 45.353C106.58 45.353 104.445 44.586 102.725 43.224V192H112.075C112.402 192 112.677 192.167 112.86 192.408H117.288C117.471 192.167 117.747 192 118.073 192Z" fill="#36393F"/>
<path fill-rule="evenodd" clip-rule="evenodd" d="M371.854 141.394C373.001 140.549 374.586 140.498 376.315 141.246C378.172 142.049 380.305 143.94 380.601 145.863C380.934 148.024 379.911 150.404 377.996 151.925C376.852 152.833 375.536 153.305 374.25 153.306C373.605 153.306 372.968 153.186 372.364 152.944C371.259 152.5 370.533 151.143 370.264 149.018C369.963 146.636 370.26 142.565 371.854 141.394ZM365.528 159.054C365.107 159.574 364.422 159.756 363.691 159.756C362.739 159.756 361.708 159.448 361.076 159.176C359.239 158.384 359.085 157.367 359.157 156.832V156.831C359.274 155.964 359.86 155.34 360.764 155.117C362.208 154.766 364.544 155.524 365.308 156.6C366.204 157.865 365.831 158.681 365.528 159.054ZM358.92 160.166C363.384 162.612 370.91 161.34 376.364 157.132C378.611 155.397 383.61 150.646 381.494 144.004C380.336 140.371 377.673 137.111 373.994 134.823C371.335 133.171 368.476 132.301 365.833 132.301C364.933 132.301 364.059 132.402 363.226 132.607C361.596 133.008 360.16 133.791 358.92 134.928V137.359C359.085 137.291 359.254 137.234 359.43 137.194C360.308 136.995 361.267 137.163 362.134 137.671V137.672C363.633 138.553 364.433 140.14 364.125 141.62C363.831 143.037 362.363 145.071 361.106 145.804C360.374 146.231 359.74 146.38 359.213 146.38C359.108 146.38 359.016 146.364 358.92 146.353V160.166Z" fill="#72767D"/>
<path fill-rule="evenodd" clip-rule="evenodd" d="M372.249 148.767C372.465 150.474 372.943 151.021 373.109 151.088C374.26 151.549 375.587 151.283 376.752 150.359C378.094 149.293 378.847 147.608 378.625 146.167C378.486 145.265 377.206 143.81 375.522 143.082C375.211 142.948 374.606 142.725 374.007 142.725C373.663 142.725 373.321 142.799 373.039 143.006C372.563 143.355 371.902 146.028 372.249 148.767ZM360.099 144.076C360.851 143.637 361.992 142.058 362.168 141.212C362.314 140.51 361.752 139.766 361.121 139.395C360.802 139.208 360.473 139.111 360.169 139.111C360.069 139.111 359.971 139.121 359.877 139.142C359.484 139.233 359.169 139.501 358.92 139.847V144.297C359.188 144.447 359.581 144.378 360.099 144.076Z" fill="#36393F"/>
<path fill-rule="evenodd" clip-rule="evenodd" d="M363.683 157.766C363.681 157.763 363.679 157.76 363.676 157.757C363.532 157.568 362.751 157.154 361.914 157.048C361.63 157.013 361.43 157.023 361.3 157.046C361.804 157.405 362.995 157.758 363.683 157.766Z" fill="#4F545C"/>
<path fill-rule="evenodd" clip-rule="evenodd" d="M331.524 115.379C334.549 117.35 336.232 120.68 336.026 124.285C336.006 124.639 335.799 124.956 335.483 125.118C334.036 125.858 332.484 126.225 330.94 126.225C329.055 126.225 327.181 125.678 325.518 124.594C324.5 123.931 323.649 123.104 322.956 122.174V165.063C322.956 165.615 322.508 166.063 321.956 166.063C321.773 166.063 321.61 166 321.462 165.914V174.977C324.698 174.977 327.33 177.608 327.33 180.843V184.297C327.33 185.286 326.525 186.09 325.536 186.09H324.48C324.966 188.021 325.214 190.001 325.231 192H356.92V175.61C355.058 175.254 353.362 174.507 352.737 173.051C352.309 172.054 352.522 171.376 352.775 170.983C353.462 169.919 355.027 169.889 356.409 169.862C356.582 169.859 356.754 169.855 356.92 169.849V83.5278C355.321 86.0038 352.914 87.8818 349.966 88.8048C348.672 89.2098 347.356 89.4078 346.057 89.4078C342.874 89.4078 339.789 88.2178 337.351 85.9598C337.09 85.7188 336.976 85.3578 337.053 85.0108C337.969 80.8568 340.765 77.5548 344.618 75.9348C343.941 74.4778 343.608 72.8558 343.705 71.1658C343.726 70.8118 343.932 70.4948 344.249 70.3328C347.463 68.6878 351.189 68.8848 354.213 70.8568C355.299 71.5648 356.205 72.4528 356.92 73.4608V43.5908H322.956V114.276C325.818 113.312 328.929 113.687 331.524 115.379Z" fill="#36393F"/>
<path fill-rule="evenodd" clip-rule="evenodd" d="M323.239 192C323.221 189.996 322.929 188.017 322.398 186.09H320.527C319.997 188.016 319.705 189.995 319.688 192H323.239Z" fill="#4F545C"/>
<path fill-rule="evenodd" clip-rule="evenodd" d="M325.33 184.09V180.843C325.33 178.711 323.595 176.976 321.463 176.976C319.33 176.976 317.596 178.711 317.596 180.843V184.09H325.33Z" fill="#36393F"/>
<path fill-rule="evenodd" clip-rule="evenodd" d="M41.3301 192H43.5751V174.598H41.3301V192Z" fill="#36393E"/>
<path fill-rule="evenodd" clip-rule="evenodd" d="M38.2305 165.548V171.427C38.6985 171.753 39.1135 172.149 39.4635 172.597H46.6745V165.548C46.6745 163.22 44.7805 161.327 42.4535 161.327C40.1245 161.327 38.2305 163.22 38.2305 165.548Z" fill="#4F545C"/>
<path fill-rule="evenodd" clip-rule="evenodd" d="M57.5926 182.139H59.0426V179.256C59.0426 177.239 57.4016 175.597 55.3846 175.597C53.3666 175.597 51.7256 177.239 51.7256 179.256V182.139H53.1756H57.5926Z" fill="#72767D"/>
<path fill-rule="evenodd" clip-rule="evenodd" d="M54.1748 191.999H56.5918V184.138H54.1748V191.999Z" fill="#4F545C"/>
<path fill-rule="evenodd" clip-rule="evenodd" d="M36.5987 178.954H38.6647V176.071C38.6647 174.054 37.0237 172.413 35.0067 172.413C32.9897 172.413 31.3477 174.054 31.3477 176.071V178.954H33.4147H36.5987Z" fill="#36393E"/>
<path fill-rule="evenodd" clip-rule="evenodd" d="M34.415 191.999H35.599V180.954H34.415V191.999Z" fill="#4F545C"/>
<path fill-rule="evenodd" clip-rule="evenodd" d="M108.422 43.3407C109.559 40.9437 109.436 38.1977 108.061 35.8877C106.687 33.5767 104.333 32.1577 101.685 32.0127C100.547 34.4097 100.671 37.1547 102.046 39.4657C103.42 41.7767 105.774 43.1957 108.422 43.3407ZM398.22 89.9774C399.092 92.5204 401.105 94.3924 403.668 95.0774C405.272 92.9634 405.714 90.2514 404.842 87.7074C403.97 85.1644 401.957 83.2934 399.394 82.6084C397.79 84.7214 397.348 87.4344 398.22 89.9774Z" fill="#72767D"/>
<path fill-rule="evenodd" clip-rule="evenodd" d="M346.523 75.2778C349.925 74.4198 353.42 74.9608 356.345 76.7558C355.802 75.0488 354.696 73.5568 353.122 72.5308C350.87 71.0638 348.131 70.8258 345.69 71.8648C345.707 73.0778 346.003 74.2338 346.523 75.2778ZM326.61 122.918C328.863 124.387 331.602 124.623 334.042 123.585C334.006 120.932 332.685 118.522 330.432 117.054C328.18 115.586 325.442 115.349 323 116.388C323.037 119.04 324.358 121.45 326.61 122.918ZM269.42 64.9531C269.9 66.5211 271.058 67.7191 272.574 68.2491C273.533 66.9611 273.822 65.3201 273.342 63.7521C272.863 62.1841 271.705 60.9871 270.189 60.4561C269.229 61.7451 268.94 63.3861 269.42 64.9531ZM64.3675 134.005C66.9315 134.683 69.6085 134.06 71.6295 132.286C73.6495 130.512 74.6135 127.939 74.2715 125.308C71.7055 124.629 69.0305 125.252 67.0105 127.026C64.9905 128.8 64.0255 131.374 64.3675 134.005Z" fill="#4F545C"/>
<path fill-rule="evenodd" clip-rule="evenodd" d="M84.9159 79.4528C81.6979 77.5118 77.8479 77.3498 74.5059 78.9898C74.6139 82.7108 76.5519 86.0408 79.7699 87.9828C82.9889 89.9258 86.8389 90.0858 90.1809 88.4458C90.0729 84.7248 88.1349 81.3948 84.9159 79.4528Z" fill="#72767D"/>
<path fill-rule="evenodd" clip-rule="evenodd" d="M358.895 38.5401C360.041 42.0811 362.834 44.7351 366.468 45.6971C370.102 46.6551 373.843 45.7331 376.591 43.2241C375.445 39.6831 372.651 37.0281 369.018 36.0671C365.384 35.1041 361.643 36.0281 358.895 38.5401Z" fill="#4F545C"/>
<path fill-rule="evenodd" clip-rule="evenodd" d="M356.617 79.4083C353.76 77.0233 349.982 76.2663 346.393 77.3883C342.806 78.5123 340.134 81.2873 339.146 84.8763C342.004 87.2623 345.783 88.0193 349.37 86.8953C352.957 85.7723 355.63 82.9963 356.617 79.4083ZM362.692 173.743C368.918 172.764 371.928 168.239 372.615 164.662C372.93 163.022 372.681 162.001 372.468 161.686C369.785 162.821 366.984 163.421 364.371 163.421C362.403 163.421 360.543 163.087 358.921 162.4V169.474C360.703 168.976 362.5 168.191 363.172 167.18C363.479 166.721 364.099 166.597 364.559 166.901C365.019 167.207 365.144 167.827 364.838 168.287C363.406 170.44 359.619 171.423 358.058 171.745C357.602 171.84 357.041 171.85 356.447 171.862C355.921 171.872 354.869 171.892 354.504 172.057C354.516 172.104 354.537 172.171 354.576 172.262C355.263 173.865 360.221 174.132 362.692 173.743Z" fill="#72767D"/>
<path fill-rule="evenodd" clip-rule="evenodd" d="M245.272 197C244.166 197 243.11 196.785 242.136 196.408V199.538C242.136 205.212 239.927 210.545 235.914 214.558C235.908 214.564 235.903 214.571 235.897 214.577C239.977 214.234 243.933 213.793 247.741 213.265V196.639C246.957 196.871 246.13 197 245.272 197Z" fill="#36393E"/>
<path fill-rule="evenodd" clip-rule="evenodd" d="M240.053 199.538V195.251C239.936 195.164 239.817 195.08 239.705 194.988C238.719 196.885 237.469 198.654 235.914 200.207C232.292 203.831 230.299 208.643 230.299 213.761V214.982C231.178 214.929 232.051 214.869 232.921 214.807C233.395 214.213 233.892 213.635 234.437 213.09C238.059 209.467 240.053 204.655 240.053 199.538ZM183.352 199.017V196.92C181.765 196.716 180.312 196.086 179.109 195.147V212.767C182.522 213.3 186.067 213.76 189.727 214.142C189.657 214.069 189.596 213.99 189.525 213.919C185.545 209.939 183.352 204.646 183.352 199.017ZM273.427 201.608C271.849 201.608 270.564 200.323 270.564 198.745V177.029C270.564 175.451 271.849 174.165 273.427 174.165C275.006 174.165 276.291 175.451 276.291 177.029V198.745C276.291 200.323 275.006 201.608 273.427 201.608ZM278.634 175.444C278.634 172.573 276.299 170.238 273.427 170.238C270.555 170.238 268.22 172.573 268.22 175.444V200.257C268.22 203.129 270.555 205.464 273.427 205.464C276.299 205.464 278.634 203.129 278.634 200.257V175.444Z" fill="#36393E"/>
<path fill-rule="evenodd" clip-rule="evenodd" d="M190.69 194.377C189.319 195.776 187.484 196.715 185.435 196.942V199.017C185.435 204.091 187.411 208.861 190.998 212.446C191.625 213.074 192.188 213.745 192.721 214.436C193.504 214.507 194.289 214.577 195.082 214.641V206.51C195.082 202.023 193.529 197.779 190.69 194.377ZM164.492 184.947C165.049 184.947 165.503 184.493 165.503 183.936V168.831C164.819 168.668 164.146 168.501 163.48 168.331V183.936C163.48 184.493 163.934 184.947 164.492 184.947Z" fill="#36393E"/>
<path fill-rule="evenodd" clip-rule="evenodd" d="M164.493 191.657C167.588 191.657 170.104 189.139 170.104 186.046V169.848C169.253 169.674 168.415 169.492 167.587 169.308V183.937C167.587 185.643 166.199 187.03 164.493 187.03C162.786 187.03 161.399 185.643 161.399 183.937V167.779C160.543 167.545 159.703 167.306 158.881 167.061V186.046C158.881 189.139 161.399 191.657 164.493 191.657ZM199.319 179.122V179.062C198.245 180.011 196.851 180.605 195.309 180.605C194.56 180.605 193.847 180.459 193.187 180.206V182.51C193.804 182.897 194.528 183.131 195.309 183.131C197.52 183.131 199.319 181.333 199.319 179.122ZM285.012 174.658V202.859C286.48 202.062 287.78 201.237 288.939 200.391V164.641C288.939 164.066 289.405 163.6 289.981 163.6C290.556 163.6 291.022 164.066 291.022 164.641V198.703C293.451 196.456 294.775 194.076 294.775 191.623V153.975C292.03 157.907 286.538 161.473 278.929 164.471C282.549 166.432 285.012 170.262 285.012 174.658ZM230.646 179.245C231.632 177.372 232.899 175.637 234.438 174.099C234.698 173.839 234.941 173.567 235.184 173.295C235.171 173.282 235.161 173.266 235.148 173.253C234.371 173.313 233.587 173.367 232.8 173.42C231.771 175.23 231.038 177.19 230.646 179.245ZM230.299 189.118V204.62C231.327 202.469 232.702 200.475 234.438 198.739C236.022 197.156 237.273 195.335 238.204 193.37C237.167 191.935 236.549 190.181 236.549 188.281V176.708C236.549 176.167 236.441 175.655 236.281 175.167C236.156 175.299 236.043 175.437 235.914 175.566C232.292 179.189 230.299 184 230.299 189.118ZM199.298 174.725C199.29 174.583 199.257 174.449 199.236 174.311C198.595 174.046 197.973 173.747 197.37 173.416C196.448 173.354 195.525 173.291 194.616 173.22C193.735 174.121 193.188 175.35 193.188 176.707V177.903C193.802 178.292 194.528 178.522 195.31 178.522C197.447 178.522 199.184 176.835 199.298 174.725Z" fill="#36393E"/>
<path fill-rule="evenodd" clip-rule="evenodd" d="M249.824 195.703V212.968C251.507 212.717 253.153 212.446 254.77 212.161V184.172C254.77 183.596 255.236 183.13 255.812 183.13C256.387 183.13 256.853 183.596 256.853 184.172V211.782C258.558 211.46 260.223 211.12 261.842 210.763V195.277C261.842 194.701 262.308 194.235 262.883 194.235C263.459 194.235 263.925 194.701 263.925 195.277V210.283C267.471 209.445 270.797 208.525 273.837 207.526C273.7 207.534 273.565 207.547 273.427 207.547C269.408 207.547 266.137 204.276 266.137 200.257V175.444C266.137 171.426 269.408 168.155 273.427 168.155C277.446 168.155 280.716 171.426 280.716 175.444V200.257C280.716 202.68 279.523 204.825 277.699 206.151C279.573 205.436 281.329 204.695 282.929 203.922V174.657C282.929 170.336 280.024 166.685 276.066 165.54C273.063 166.598 269.774 167.57 266.248 168.454C264.804 170.12 263.925 172.286 263.925 174.657V188.935C263.925 189.511 263.459 189.976 262.883 189.976C262.308 189.976 261.842 189.511 261.842 188.935V174.657C261.842 172.676 262.344 170.809 263.225 169.177C261.173 169.643 259.048 170.08 256.853 170.486V176.585C256.853 177.161 256.387 177.627 255.812 177.627C255.236 177.627 254.77 177.161 254.77 176.585V170.86C254.511 170.905 254.253 170.949 253.992 170.993V188.28C253.992 191.418 252.319 194.167 249.824 195.703Z" fill="#36393E"/>
<path fill-rule="evenodd" clip-rule="evenodd" d="M274.208 177.029C274.208 176.598 273.858 176.248 273.427 176.248C273.004 176.248 272.646 176.606 272.646 177.029V198.745C272.646 199.168 273.004 199.526 273.427 199.526C273.858 199.526 274.208 199.175 274.208 198.745V177.029ZM139.269 157.92C137.684 156.654 136.406 155.337 135.456 153.976V191.624C135.456 194.096 136.803 196.493 139.269 198.756V157.92ZM151.958 164.734C150.018 163.99 148.225 163.207 146.558 162.394V183.083C146.558 183.658 146.092 184.124 145.517 184.124C144.941 184.124 144.476 183.658 144.476 183.083V161.32C143.362 160.713 142.309 160.092 141.352 159.453V200.437C142.291 201.118 143.334 201.783 144.476 202.433V188.881C144.476 188.306 144.941 187.84 145.517 187.84C146.092 187.84 146.558 188.306 146.558 188.881V203.548C148.203 204.376 150.003 205.173 151.958 205.935V164.734ZM199.319 193.101V189.33C199.319 188.754 199.785 188.289 200.361 188.289C200.936 188.289 201.402 188.754 201.402 189.33V193.101C201.402 193.676 200.936 194.142 200.361 194.142C199.785 194.142 199.319 193.676 199.319 193.101ZM204.526 175.658C203.453 175.547 202.414 175.329 201.402 175.046V179.122C201.402 182.48 198.668 185.214 195.309 185.214C194.562 185.214 193.849 185.072 193.187 184.825V188.28C193.187 189.893 192.739 191.399 191.973 192.696C195.319 196.53 197.164 201.374 197.164 206.51V214.796C199.582 214.97 202.037 215.11 204.526 215.214V175.658ZM170.702 209.586C170.702 210.162 170.236 210.627 169.66 210.627C169.085 210.627 168.619 210.162 168.619 209.586V205.073C168.619 202.296 166.361 200.039 163.585 200.039C160.81 200.039 158.553 202.296 158.553 205.073C158.553 205.648 158.087 206.114 157.512 206.114C156.936 206.114 156.47 205.648 156.47 205.073C156.47 201.149 159.662 197.956 163.585 197.956C167.51 197.956 170.702 201.149 170.702 205.073V209.586ZM177.027 192.811C176.219 191.488 175.744 189.941 175.744 188.281V170.912C174.538 170.707 173.353 170.491 172.187 170.267V186.046C172.187 190.289 168.735 193.74 164.493 193.74C160.25 193.74 156.798 190.289 156.798 186.046V166.425C155.854 166.123 154.936 165.813 154.041 165.497V206.718C157.094 207.814 160.469 208.827 164.106 209.749V209.411C164.106 207.879 162.861 206.635 161.33 206.635C160.754 206.635 160.288 206.169 160.288 205.593C160.288 205.018 160.754 204.552 161.33 204.552C164.01 204.552 166.189 206.732 166.189 209.411V210.257C169.599 211.066 173.219 211.797 177.027 212.435V192.811ZM216.675 205.044C216.099 205.044 215.633 204.578 215.633 204.002V181.646C215.633 181.071 216.099 180.605 216.675 180.605C217.251 180.605 217.717 181.071 217.717 181.646V204.002C217.717 204.578 217.251 205.044 216.675 205.044ZM228.216 182.871C228.216 179.952 228.81 177.128 229.924 174.523C228.238 175.16 226.444 175.563 224.571 175.694V189.33C224.571 189.906 224.106 190.372 223.53 190.372C222.955 190.372 222.489 189.906 222.489 189.33V175.761H212.51V183.082C212.51 183.658 212.044 184.124 211.468 184.124C210.893 184.124 210.427 183.658 210.427 183.082V175.761H206.609V215.296C207.874 215.338 209.147 215.371 210.427 215.394V194.178C210.427 193.603 210.893 193.137 211.468 193.137C212.044 193.137 212.51 193.603 212.51 194.178V215.421C213.377 215.43 214.242 215.441 215.115 215.441C215.289 215.441 215.46 215.438 215.633 215.438V212.681C215.633 212.106 216.099 211.64 216.675 211.64C217.251 211.64 217.717 212.106 217.717 212.681V215.421C219.318 215.405 220.91 215.377 222.489 215.331V195.816C222.489 195.24 222.955 194.774 223.53 194.774C224.106 194.774 224.571 195.24 224.571 195.816V215.259C225.794 215.213 227.009 215.16 228.216 215.097V182.871Z" fill="#36393E"/>
<path fill-rule="evenodd" clip-rule="evenodd" d="M177.027 192.809V212.433C177.714 212.548 178.412 212.657 179.11 212.766V195.146C178.282 194.5 177.577 193.708 177.027 192.809ZM191.974 192.695C191.613 193.306 191.184 193.872 190.691 194.376C193.53 197.778 195.082 202.023 195.082 206.509V214.64C195.772 214.696 196.469 214.745 197.165 214.795V206.509C197.165 201.373 195.32 196.529 191.974 192.695ZM185.436 199.017V196.942C185.118 196.978 184.795 196.999 184.468 196.999C184.089 196.999 183.719 196.967 183.353 196.92V199.017C183.353 204.646 185.546 209.939 189.526 213.919C189.597 213.99 189.658 214.069 189.728 214.142C190.719 214.245 191.715 214.344 192.722 214.435C192.189 213.745 191.625 213.074 190.998 212.446C187.412 208.861 185.436 204.091 185.436 199.017ZM161.33 204.551C160.754 204.551 160.288 205.016 160.288 205.592C160.288 206.168 160.754 206.634 161.33 206.634C162.861 206.634 164.106 207.878 164.106 209.409V209.747C164.79 209.921 165.487 210.089 166.189 210.256V209.409C166.189 206.731 164.01 204.551 161.33 204.551Z" fill="#4F545C"/>
<path fill-rule="evenodd" clip-rule="evenodd" d="M163.586 197.955C159.663 197.955 156.471 201.148 156.471 205.072C156.471 205.647 156.937 206.113 157.512 206.113C158.087 206.113 158.553 205.647 158.553 205.072C158.553 202.295 160.811 200.038 163.586 200.038C166.361 200.038 168.62 202.295 168.62 205.072V209.585C168.62 210.161 169.086 210.626 169.661 210.626C170.237 210.626 170.702 210.161 170.702 209.585V205.072C170.702 201.148 167.51 197.955 163.586 197.955ZM154.041 165.495C153.333 165.245 152.634 164.992 151.958 164.732V205.933C152.637 206.198 153.327 206.461 154.041 206.717V165.495ZM164.493 193.739C168.736 193.739 172.187 190.288 172.187 186.045V170.266C171.483 170.131 170.794 169.989 170.104 169.848V186.045C170.104 189.138 167.588 191.656 164.493 191.656C161.399 191.656 158.881 189.138 158.881 186.045V167.061C158.177 166.852 157.477 166.641 156.798 166.424V186.045C156.798 190.288 160.25 193.739 164.493 193.739Z" fill="#4F545C"/>
<path fill-rule="evenodd" clip-rule="evenodd" d="M164.493 187.03C166.199 187.03 167.587 185.643 167.587 183.937V169.308C166.886 169.152 166.187 168.995 165.504 168.832V183.937C165.504 184.494 165.05 184.947 164.493 184.947C163.935 184.947 163.481 184.494 163.481 183.937V168.332C162.775 168.152 162.085 167.966 161.399 167.779V183.937C161.399 185.643 162.786 187.03 164.493 187.03ZM145.517 184.123C146.092 184.123 146.558 183.657 146.558 183.081V162.393C145.837 162.04 145.143 161.683 144.475 161.319V183.081C144.475 183.657 144.941 184.123 145.517 184.123ZM146.558 188.881C146.558 188.305 146.092 187.839 145.517 187.839C144.941 187.839 144.475 188.305 144.475 188.881V202.433C145.138 202.81 145.831 203.182 146.558 203.548V188.881ZM141.352 159.452C140.602 158.951 139.919 158.438 139.269 157.919V198.755C139.89 199.325 140.592 199.885 141.352 200.436V159.452ZM206.609 175.761H206.499C205.833 175.761 205.175 175.725 204.526 175.657V215.214C205.219 215.243 205.911 215.273 206.609 215.296V175.761ZM201.402 179.122V175.046C200.662 174.84 199.936 174.602 199.235 174.311C199.257 174.449 199.29 174.583 199.298 174.725C199.184 176.835 197.447 178.522 195.309 178.522C194.527 178.522 193.802 178.292 193.187 177.903V180.206C193.847 180.459 194.56 180.605 195.309 180.605C196.851 180.605 198.245 180.011 199.319 179.062V179.122C199.319 181.333 197.52 183.131 195.309 183.131C194.528 183.131 193.804 182.897 193.187 182.51V184.825C193.849 185.072 194.562 185.214 195.309 185.214C198.668 185.214 201.402 182.48 201.402 179.122ZM211.469 193.137C210.893 193.137 210.427 193.603 210.427 194.179V215.394C211.119 215.407 211.815 215.414 212.511 215.421V194.179C212.511 193.603 212.045 193.137 211.469 193.137ZM211.469 184.123C212.045 184.123 212.511 183.657 212.511 183.081V175.761H210.427V183.081C210.427 183.657 210.893 184.123 211.469 184.123ZM217.717 181.646C217.717 181.071 217.251 180.605 216.675 180.605C216.1 180.605 215.634 181.071 215.634 181.646V204.002C215.634 204.578 216.1 205.044 216.675 205.044C217.251 205.044 217.717 204.578 217.717 204.002V181.646ZM216.675 211.639C216.099 211.639 215.633 212.105 215.633 212.68V215.437C216.331 215.435 217.023 215.427 217.717 215.42V212.68C217.717 212.105 217.251 211.639 216.675 211.639ZM201.402 193.101V189.33C201.402 188.754 200.936 188.289 200.36 188.289C199.785 188.289 199.319 188.754 199.319 189.33V193.101C199.319 193.676 199.785 194.142 200.36 194.142C200.936 194.142 201.402 193.676 201.402 193.101ZM223.53 190.371C224.106 190.371 224.572 189.905 224.572 189.329V175.693C224.129 175.724 223.688 175.761 223.238 175.761H222.489V189.329C222.489 189.905 222.955 190.371 223.53 190.371ZM223.53 194.774C222.955 194.774 222.489 195.24 222.489 195.816V215.33C223.186 215.31 223.879 215.284 224.572 215.258V195.816C224.572 195.24 224.106 194.774 223.53 194.774ZM235.915 200.207C237.47 198.654 238.72 196.885 239.706 194.988C239.138 194.516 238.637 193.97 238.205 193.371C237.274 195.335 236.022 197.156 234.438 198.739C232.703 200.475 231.328 202.469 230.3 204.62V189.119C230.3 183.999 232.293 179.189 235.915 175.567C236.044 175.438 236.157 175.298 236.282 175.166C236.051 174.462 235.681 173.824 235.184 173.295C234.941 173.567 234.698 173.839 234.438 174.099C232.9 175.637 231.632 177.373 230.646 179.245C231.039 177.19 231.772 175.23 232.801 173.42C232.634 173.432 232.469 173.445 232.302 173.456C231.542 173.87 230.742 174.214 229.924 174.523C228.811 177.128 228.217 179.952 228.217 182.871V215.097C228.913 215.061 229.609 215.024 230.3 214.982V213.761C230.3 208.644 232.293 203.832 235.915 200.207ZM242.136 199.538V196.408C241.386 196.117 240.687 195.726 240.053 195.251V199.538C240.053 204.655 238.06 209.467 234.438 213.09C233.893 213.635 233.396 214.213 232.922 214.807C233.92 214.735 234.912 214.659 235.898 214.577C235.904 214.571 235.908 214.564 235.914 214.558C239.927 210.545 242.136 205.212 242.136 199.538ZM247.741 196.639V213.265C248.439 213.169 249.137 213.072 249.824 212.969V195.704C249.179 196.101 248.482 196.419 247.741 196.639ZM256.853 184.172C256.853 183.596 256.387 183.13 255.812 183.13C255.236 183.13 254.77 183.596 254.77 184.172V212.161C255.471 212.037 256.166 211.912 256.853 211.782V184.172ZM255.812 177.627C256.387 177.627 256.853 177.161 256.853 176.585V170.486C256.164 170.613 255.473 170.739 254.77 170.86V176.585C254.77 177.161 255.236 177.627 255.812 177.627ZM282.929 174.658V203.923C283.652 203.574 284.348 203.22 285.012 202.859V174.658C285.012 170.262 282.549 166.432 278.928 164.471C278.002 164.836 277.053 165.194 276.066 165.541C280.024 166.686 282.929 170.337 282.929 174.658ZM261.842 188.935C261.842 189.511 262.308 189.977 262.883 189.977C263.459 189.977 263.925 189.511 263.925 188.935V174.657C263.925 172.287 264.804 170.121 266.248 168.455C265.259 168.703 264.252 168.944 263.225 169.177C262.344 170.81 261.842 172.676 261.842 174.657V188.935ZM262.883 194.236C262.308 194.236 261.842 194.702 261.842 195.278V210.763C262.547 210.608 263.237 210.446 263.925 210.284V195.278C263.925 194.702 263.459 194.236 262.883 194.236Z" fill="#4F545C"/>
<path fill-rule="evenodd" clip-rule="evenodd" d="M273.427 205.464C270.555 205.464 268.22 203.129 268.22 200.257V175.444C268.22 172.572 270.555 170.237 273.427 170.237C276.299 170.237 278.634 172.572 278.634 175.444V200.257C278.634 203.129 276.299 205.464 273.427 205.464ZM280.717 200.257V175.444C280.717 171.425 277.446 168.155 273.427 168.155C269.408 168.155 266.138 171.425 266.138 175.444V200.257C266.138 204.276 269.408 207.547 273.427 207.547C273.566 207.547 273.701 207.533 273.838 207.526C275.185 207.083 276.463 206.621 277.699 206.151C279.524 204.824 280.717 202.68 280.717 200.257Z" fill="#4F545C"/>
<path fill-rule="evenodd" clip-rule="evenodd" d="M273.427 199.525C273.004 199.525 272.646 199.167 272.646 198.744V177.028C272.646 176.606 273.004 176.248 273.427 176.248C273.859 176.248 274.208 176.597 274.208 177.028V198.744C274.208 199.175 273.859 199.525 273.427 199.525ZM276.291 177.028C276.291 175.45 275.006 174.165 273.427 174.165C271.849 174.165 270.564 175.45 270.564 177.028V198.744C270.564 200.322 271.849 201.608 273.427 201.608C275.006 201.608 276.291 200.322 276.291 198.744V177.028ZM291.022 164.641C291.022 164.065 290.556 163.599 289.98 163.599C289.405 163.599 288.939 164.065 288.939 164.641V200.391C289.699 199.837 290.403 199.275 291.022 198.703V164.641ZM207.617 76.2221L214.176 88.1831C214.397 88.5861 214.778 88.6301 214.931 88.6301C215.084 88.6301 215.465 88.5861 215.686 88.1831L222.245 76.2221C223.906 73.1941 223.51 69.3981 221.26 66.7771C219.674 64.9301 217.367 63.8691 214.931 63.8691C212.495 63.8691 210.188 64.9301 208.602 66.7771C206.352 69.3981 205.956 73.1941 207.617 76.2221Z" fill="#4F545C"/>
<path fill-rule="evenodd" clip-rule="evenodd" d="M247.868 171.908H236.632C237.817 173.162 238.549 174.849 238.549 176.706V188.279C238.549 191.984 241.564 194.999 245.269 194.999C248.977 194.999 251.992 191.984 251.992 188.279V171.444C250.662 171.74 249.285 171.908 247.868 171.908ZM193.104 171.908H181.868C180.45 171.908 179.073 171.74 177.744 171.444V188.279C177.744 191.984 180.758 194.999 184.464 194.999C188.172 194.999 191.187 191.984 191.187 188.279V176.706C191.187 174.849 191.919 173.162 193.104 171.908Z" fill="#72767D"/>
<path fill-rule="evenodd" clip-rule="evenodd" d="M168.868 109.09C172.27 105.887 176.838 103.908 181.868 103.908H247.868C252.898 103.908 257.466 105.887 260.868 109.09V108.361C260.868 101.192 255.036 95.3613 247.868 95.3613H181.868C174.7 95.3613 168.868 101.192 168.868 108.361V109.09Z" fill="#4F545C"/>
<path fill-rule="evenodd" clip-rule="evenodd" d="M246.297 140.331C246.873 139.734 247.823 139.72 248.418 140.295C250.158 141.977 253.574 141.978 255.314 140.295C255.909 139.72 256.859 139.734 257.435 140.331C258.011 140.927 257.995 141.876 257.399 142.452C255.951 143.852 253.909 144.551 251.866 144.551C249.823 144.551 247.781 143.852 246.333 142.452C245.737 141.876 245.721 140.927 246.297 140.331ZM183.402 142.452C181.954 143.852 179.911 144.552 177.869 144.552C175.826 144.552 173.784 143.852 172.336 142.452C171.74 141.876 171.724 140.926 172.3 140.331C172.876 139.734 173.826 139.72 174.421 140.295C176.161 141.978 179.577 141.977 181.317 140.295C181.912 139.72 182.862 139.734 183.438 140.331C184.014 140.927 183.998 141.876 183.402 142.452ZM164.935 121.569H167.277C167.829 121.569 168.277 122.017 168.277 122.569C168.277 123.122 167.829 123.569 167.277 123.569H160.284C155.873 123.569 152.284 127.158 152.284 131.569V142.111C152.284 146.522 155.873 150.111 160.284 150.111H167.277C167.829 150.111 168.277 150.559 168.277 151.111C168.277 151.663 167.829 152.111 167.277 152.111H164.867V152.909C164.867 162.283 172.493 169.909 181.867 169.909H192.814C189.53 166.492 187.498 161.863 187.498 156.761V142.19C187.498 137.779 191.087 134.19 195.498 134.19H222.919C223.471 134.19 223.919 134.638 223.919 135.19H228.166C228.166 134.638 228.614 134.19 229.166 134.19H234.237C238.648 134.19 242.237 137.779 242.237 142.19V144.934C242.766 144.86 243.302 144.809 243.851 144.809C250.318 144.809 255.581 150.071 255.581 156.539C255.581 163.007 250.318 168.269 243.851 168.269H238.319C237.882 168.841 237.419 169.391 236.921 169.909H247.867C257.241 169.909 264.867 162.283 264.867 152.909V152.111H262.874C262.322 152.111 261.874 151.663 261.874 151.111C261.874 150.559 262.322 150.111 262.874 150.111H269.867C274.278 150.111 277.867 146.522 277.867 142.111V131.569C277.867 127.158 274.278 123.569 269.867 123.569H262.874C262.322 123.569 261.874 123.122 261.874 122.569C261.874 122.017 262.322 121.569 262.874 121.569H264.799C264.112 112.821 256.789 105.909 247.867 105.909H181.867C172.945 105.909 165.622 112.821 164.935 121.569Z" fill="#72767D"/>
<path fill-rule="evenodd" clip-rule="evenodd" d="M222.919 136.19H195.498C192.19 136.19 189.498 138.881 189.498 142.19V146.057C190.724 144.014 192.955 142.635 195.498 142.635H234.237C236.548 142.635 238.602 143.776 239.878 145.516C239.998 145.473 240.115 145.424 240.237 145.385V142.19C240.237 138.881 237.545 136.19 234.237 136.19H229.166C228.614 136.19 228.166 135.742 228.166 135.19H223.919C223.919 135.742 223.471 136.19 222.919 136.19Z" fill="#72767D"/>
<path fill-rule="evenodd" clip-rule="evenodd" d="M209.498 162.269C211.148 162.269 212.498 163.619 212.498 165.269C212.498 166.919 211.148 168.269 209.498 168.269H203.498C201.848 168.269 200.498 166.919 200.498 165.269C200.498 163.619 201.848 162.269 203.498 162.269H209.498ZM234.237 142.635H195.498C192.955 142.635 190.724 144.014 189.498 146.057V156.761C189.498 166.135 197.124 173.761 206.498 173.761H223.237C228.169 173.761 232.604 171.636 235.713 168.269H226.754C226.687 168.269 226.625 168.248 226.561 168.236C226.454 168.248 226.348 168.269 226.237 168.269H220.237C218.587 168.269 217.237 166.919 217.237 165.269C217.237 163.619 218.587 162.269 220.237 162.269H226.237C227.534 162.269 228.635 163.109 229.051 164.268C230.556 162.701 232.12 160.202 232.12 156.539C232.12 151.467 235.362 147.149 239.878 145.516C238.602 143.776 236.548 142.635 234.237 142.635Z" fill="#B9BBBE"/>
<path fill-rule="evenodd" clip-rule="evenodd" d="M226.237 162.27H220.237C218.587 162.27 217.237 163.62 217.237 165.27C217.237 166.92 218.587 168.27 220.237 168.27H226.237C226.348 168.27 226.454 168.249 226.562 168.237C226.182 168.161 225.868 167.882 225.779 167.493C225.675 167.038 225.9 166.572 226.32 166.37C226.429 166.315 227.717 165.657 229.051 164.269C228.635 163.11 227.534 162.27 226.237 162.27ZM203.498 162.27C201.848 162.27 200.498 163.62 200.498 165.27C200.498 166.92 201.848 168.27 203.498 168.27H209.498C211.148 168.27 212.498 166.92 212.498 165.27C212.498 163.62 211.148 162.27 209.498 162.27H203.498ZM156.284 141.111C156.284 143.872 158.523 146.111 161.284 146.111H164.277C164.83 146.111 165.277 145.663 165.277 145.111V128.57C165.277 128.018 164.83 127.57 164.277 127.57H161.284C158.523 127.57 156.284 129.808 156.284 132.57V141.111ZM265.874 146.111H268.867C271.628 146.111 273.867 143.872 273.867 141.111V132.57C273.867 129.808 271.628 127.57 268.867 127.57H265.874C265.322 127.57 264.874 128.018 264.874 128.57V145.111C264.874 145.663 265.322 146.111 265.874 146.111Z" fill="#4F545C"/>
<path fill-rule="evenodd" clip-rule="evenodd" d="M229.869 166.27H243.851C249.216 166.27 253.581 161.905 253.581 156.54C253.581 151.175 249.216 146.81 243.851 146.81C238.486 146.81 234.12 151.175 234.12 156.54C234.12 161.357 231.821 164.484 229.869 166.27Z" fill="#B9BBBE"/>
<path fill-rule="evenodd" clip-rule="evenodd" d="M373.039 143.006C373.321 142.799 373.664 142.725 374.008 142.725C374.606 142.725 375.212 142.948 375.522 143.082C377.206 143.81 378.486 145.265 378.625 146.168C378.847 147.609 378.095 149.293 376.753 150.359C375.587 151.283 374.26 151.549 373.11 151.089C372.944 151.022 372.465 150.474 372.249 148.767C371.903 146.028 372.563 143.356 373.039 143.006ZM372.365 152.944C372.969 153.187 373.606 153.306 374.251 153.306C375.537 153.305 376.853 152.833 377.997 151.925C379.912 150.404 380.935 148.025 380.602 145.863C380.306 143.94 378.173 142.049 376.316 141.246C374.587 140.499 373.002 140.549 371.855 141.394C370.261 142.566 369.964 146.636 370.265 149.018C370.534 151.143 371.26 152.501 372.365 152.944ZM360.764 155.117C359.86 155.34 359.275 155.964 359.158 156.83C359.086 157.366 359.24 158.384 361.076 159.176C361.708 159.448 362.739 159.756 363.691 159.756C364.423 159.756 365.107 159.574 365.528 159.054C365.831 158.68 366.204 157.865 365.308 156.599C364.545 155.524 362.208 154.765 360.764 155.117ZM330.433 117.054C332.685 118.522 334.007 120.932 334.043 123.585C331.603 124.623 328.864 124.387 326.611 122.918C324.904 121.806 323.732 120.152 323.248 118.262C322.963 117.146 323.751 116.024 324.889 115.846C326.79 115.547 328.748 115.956 330.433 117.054ZM321.463 165.913C321.611 166 321.773 166.062 321.957 166.062C322.509 166.062 322.957 165.615 322.957 165.062V122.174C323.65 123.103 324.5 123.93 325.518 124.594C327.182 125.678 329.056 126.225 330.941 126.225C332.485 126.225 334.036 125.858 335.483 125.118C335.796 124.958 336.007 124.633 336.027 124.282C336.232 120.678 334.549 117.349 331.525 115.379C329.579 114.11 327.342 113.581 325.138 113.804C323.96 113.923 322.957 112.94 322.957 111.755V43.5909V40.9999C322.957 40.4479 322.509 39.9999 321.957 39.9999C321.405 39.9999 320.957 40.4479 320.957 40.9999V44.9999V165.062C320.957 165.431 321.166 165.74 321.463 165.913ZM42.7256 81.3893C43.2776 81.3893 43.7256 80.9413 43.7256 80.3893V78.6403C43.7256 78.0883 43.2776 77.6403 42.7256 77.6403C42.1736 77.6403 41.7256 78.0883 41.7256 78.6403V80.3893C41.7256 80.9413 42.1736 81.3893 42.7256 81.3893ZM164.382 95.361C164.78 95.361 165.117 95.124 165.278 94.788C165.34 94.657 165.382 94.515 165.382 94.361V1C165.382 0.447 164.934 0 164.382 0C163.83 0 163.382 0.447 163.382 1V25V94.361C163.382 94.913 163.83 95.361 164.382 95.361ZM357.92 27.0012C358.472 27.0012 358.92 26.5532 358.92 26.0012V23.7182C358.92 23.1662 358.472 22.7182 357.92 22.7182C357.368 22.7182 356.92 23.1662 356.92 23.7182V26.0012C356.92 26.5532 357.368 27.0012 357.92 27.0012ZM399.395 82.6081C401.957 83.2931 403.97 85.1641 404.842 87.7081C404.853 87.7421 404.866 87.7761 404.876 87.8101C406.27 92.0511 399.736 94.2621 398.246 90.0531L398.22 89.9771C397.348 87.4341 397.79 84.7211 399.395 82.6081ZM403.86 97.1711C403.923 97.1841 403.987 97.1901 404.049 97.1901C404.335 97.1901 404.609 97.0671 404.801 96.8491C407.182 94.1351 407.905 90.4751 406.734 87.0591C405.564 83.6441 402.748 81.1961 399.202 80.5131C398.852 80.4431 398.495 80.5681 398.261 80.8361C395.88 83.5501 395.158 87.2101 396.328 90.6261C397.499 94.0411 400.314 96.4881 403.86 97.1711ZM270.189 60.4567C271.705 60.9867 272.863 62.1847 273.343 63.7527C273.823 65.3207 273.534 66.9607 272.575 68.2497C271.059 67.7187 269.9 66.5207 269.42 64.9537C268.94 63.3857 269.23 61.7447 270.189 60.4567ZM272.702 70.3637C272.775 70.3797 272.85 70.3887 272.923 70.3887C273.196 70.3887 273.461 70.2767 273.653 70.0727C275.407 68.2017 276.006 65.6197 275.255 63.1667C274.504 60.7147 272.563 58.9107 270.062 58.3427C269.716 58.2657 269.354 58.3737 269.111 58.6337C267.356 60.5047 266.757 63.0857 267.508 65.5387C268.259 67.9917 270.201 69.7947 272.702 70.3637ZM55.9624 50.676C56.9574 49.373 58.4754 48.667 60.0664 48.682C60.5174 50.224 60.2174 51.863 59.2224 53.166C58.2274 54.469 56.7044 55.187 55.1194 55.159C54.6684 53.618 54.9674 51.979 55.9624 50.676ZM54.2654 57.097C54.5874 57.14 54.9064 57.161 55.2234 57.161C57.4124 57.161 59.4524 56.16 60.8124 54.38C62.3694 52.342 62.7054 49.713 61.7114 47.348C61.5734 47.021 61.2724 46.791 60.9204 46.744C58.3784 46.408 55.9294 47.424 54.3734 49.462C52.8164 51.501 52.4804 54.129 53.4744 56.494C53.6124 56.821 53.9134 57.051 54.2654 57.097ZM67.0103 127.027C67.9433 126.208 69.0153 125.634 70.1513 125.32C72.5763 124.651 74.7043 127.074 73.7273 129.392C73.2693 130.479 72.5623 131.468 71.6293 132.287C69.6083 134.061 66.9313 134.684 64.3673 134.006C64.0263 131.375 64.9903 128.801 67.0103 127.027ZM63.1603 135.728C64.2363 136.096 65.3353 136.277 66.4223 136.277C68.7863 136.277 71.0903 135.422 72.9483 133.79C75.6623 131.407 76.8533 127.872 76.1353 124.333C76.0653 123.985 75.8153 123.701 75.4793 123.586C72.0633 122.418 68.4043 123.142 65.6913 125.524C62.9773 127.907 61.7863 131.442 62.5043 134.981C62.5743 135.329 62.8243 135.613 63.1603 135.728ZM282.651 77.3576C284.939 74.3746 288.465 72.8206 292.173 73.1266C293.431 76.6296 292.843 80.4376 290.555 83.4206C288.267 86.4036 284.741 87.9576 281.032 87.6516C279.775 84.1486 280.363 80.3396 282.651 77.3576ZM280.187 89.5706C280.783 89.6506 281.376 89.6906 281.963 89.6906C285.946 89.6906 289.66 87.8736 292.142 84.6376C294.99 80.9246 295.613 76.1296 293.808 71.8126C293.671 71.4846 293.371 71.2546 293.019 71.2076C288.38 70.5866 283.912 72.4276 281.064 76.1406C278.216 79.8536 277.593 84.6476 279.398 88.9656C279.535 89.2936 279.835 89.5236 280.187 89.5706Z" fill="#202225"/>
<path fill-rule="evenodd" clip-rule="evenodd" d="M354.575 172.261C354.536 172.17 354.515 172.103 354.504 172.056C354.868 171.891 355.92 171.871 356.447 171.861C357.04 171.85 357.601 171.839 358.057 171.745C359.618 171.422 363.406 170.44 364.837 168.287C365.143 167.827 365.018 167.206 364.558 166.901C364.098 166.596 363.478 166.72 363.172 167.179C362.9 167.588 362.445 167.96 361.881 168.29C360.57 169.059 358.92 168.055 358.92 166.535V162.4C360.542 163.086 362.402 163.421 364.37 163.421C366.984 163.421 369.784 162.82 372.467 161.686C372.68 162.001 372.929 163.022 372.615 164.661C371.928 168.239 368.917 172.763 362.691 173.742C360.22 174.131 355.262 173.864 354.575 172.261ZM369.018 36.066C372.135 36.891 374.634 38.962 376.005 41.769C376.418 42.615 376.139 43.666 375.363 44.196C372.782 45.957 369.585 46.518 366.468 45.696C363.35 44.871 360.851 42.8 359.481 39.992C359.068 39.147 359.346 38.096 360.122 37.566C362.703 35.803 365.9 35.24 369.018 36.066ZM358.92 144.297V139.847C359.168 139.501 359.483 139.233 359.877 139.143C359.971 139.121 360.068 139.111 360.168 139.111C360.472 139.111 360.802 139.208 361.121 139.396C361.751 139.767 362.313 140.51 362.167 141.212C361.992 142.058 360.85 143.637 360.098 144.076C359.581 144.378 359.188 144.447 358.92 144.297ZM363.226 132.607C364.059 132.402 364.933 132.301 365.833 132.301C368.475 132.301 371.335 133.171 373.994 134.823C377.673 137.111 380.336 140.371 381.494 144.004C383.61 150.646 378.611 155.397 376.364 157.132C370.909 161.34 363.384 162.612 358.92 160.166V146.353C359.016 146.364 359.108 146.38 359.213 146.38C359.74 146.38 360.373 146.231 361.106 145.804C362.363 145.071 363.831 143.037 364.125 141.619C364.433 140.139 363.633 138.553 362.134 137.672C362.134 137.671 362.134 137.671 362.134 137.671C361.266 137.163 360.307 136.994 359.43 137.194C359.254 137.234 359.085 137.291 358.92 137.359V134.928C360.159 133.791 361.596 133.008 363.226 132.607ZM317.596 184.09V180.843C317.596 178.71 319.33 176.976 321.462 176.976C323.595 176.976 325.329 178.71 325.329 180.843V184.09H317.596ZM319.687 191.999C319.705 189.994 319.996 188.015 320.526 186.09H322.398C322.929 188.016 323.22 189.995 323.238 191.999H319.687ZM268.283 165.751C265.735 166.444 263.633 163.807 264.827 161.453C266.131 158.885 266.867 155.982 266.867 152.908V152.111H269.867C275.39 152.111 279.867 147.634 279.867 142.111V139.23C279.867 136.974 282.266 135.531 284.267 136.571C290.926 140.032 294.774 144.004 294.774 148.19C294.774 155.058 284.447 161.358 268.283 165.751ZM294.774 191.622C294.774 194.075 293.45 196.455 291.021 198.702C290.403 199.274 289.698 199.836 288.938 200.39C287.779 201.236 286.479 202.061 285.011 202.858C284.348 203.219 283.651 203.573 282.929 203.922C281.328 204.695 279.573 205.436 277.699 206.151C276.462 206.621 275.184 207.083 273.837 207.526C270.797 208.525 267.471 209.445 263.924 210.283C263.237 210.446 262.546 210.607 261.842 210.762C260.222 211.12 258.557 211.46 256.852 211.782C256.165 211.911 255.47 212.037 254.77 212.16C253.153 212.446 251.507 212.717 249.824 212.968C249.136 213.071 248.439 213.168 247.741 213.264C243.933 213.793 239.977 214.233 235.897 214.576C234.912 214.658 233.92 214.735 232.921 214.806C232.051 214.868 231.179 214.928 230.299 214.982C229.608 215.024 228.912 215.06 228.216 215.096C227.009 215.159 225.794 215.213 224.571 215.258C223.878 215.284 223.186 215.31 222.489 215.33C220.909 215.376 219.317 215.404 217.716 215.42C217.023 215.427 216.33 215.435 215.633 215.437C215.46 215.437 215.288 215.441 215.115 215.441C214.242 215.441 213.376 215.429 212.51 215.42C211.814 215.413 211.118 215.406 210.427 215.393C209.147 215.37 207.873 215.338 206.608 215.296C205.91 215.272 205.218 215.242 204.525 215.214C202.036 215.11 199.582 214.969 197.164 214.796C196.468 214.745 195.771 214.697 195.081 214.641C194.288 214.577 193.504 214.507 192.721 214.435C191.714 214.344 190.718 214.245 189.727 214.142C186.067 213.76 182.522 213.3 179.109 212.766C178.411 212.657 177.713 212.549 177.027 212.433C173.218 211.796 169.599 211.065 166.188 210.256C165.486 210.089 164.789 209.921 164.106 209.747C160.469 208.825 157.093 207.812 154.04 206.717C153.326 206.461 152.637 206.199 151.957 205.934C150.003 205.172 148.202 204.374 146.557 203.547C145.83 203.181 145.138 202.809 144.475 202.432C143.334 201.782 142.29 201.116 141.351 200.435C140.591 199.884 139.889 199.324 139.268 198.755C136.802 196.492 135.455 194.094 135.455 191.622V159.63C135.455 157.685 137.697 156.657 139.213 157.875C139.232 157.889 139.25 157.904 139.268 157.919C139.918 158.438 140.601 158.95 141.351 159.451C142.308 160.091 143.361 160.711 144.475 161.319C145.142 161.682 145.836 162.04 146.557 162.392C148.224 163.205 150.017 163.989 151.957 164.733C152.634 164.992 153.332 165.245 154.04 165.495C154.935 165.812 155.853 166.122 156.797 166.424C157.476 166.641 158.176 166.851 158.88 167.06C159.702 167.305 160.542 167.544 161.398 167.778C162.084 167.965 162.774 168.151 163.48 168.331C164.146 168.5 164.819 168.668 165.503 168.831C166.186 168.994 166.885 169.151 167.586 169.307C168.414 169.491 169.252 169.673 170.103 169.847C170.793 169.989 171.482 170.131 172.186 170.266C173.353 170.49 174.537 170.705 175.743 170.911V188.28C175.743 189.94 176.218 191.487 177.027 192.809C177.576 193.708 178.282 194.5 179.109 195.147C180.312 196.086 181.765 196.716 183.352 196.92C183.718 196.967 184.088 196.999 184.467 196.999C184.794 196.999 185.117 196.978 185.435 196.942C187.484 196.715 189.319 195.776 190.69 194.377C191.183 193.873 191.612 193.306 191.973 192.696C192.739 191.398 193.187 189.892 193.187 188.28V184.824V182.509V180.205V177.902V176.707C193.187 175.35 193.734 174.121 194.615 173.219C195.524 173.291 196.447 173.353 197.369 173.415C197.972 173.747 198.595 174.045 199.235 174.311C199.935 174.602 200.662 174.839 201.402 175.046C202.414 175.328 203.453 175.546 204.525 175.657C205.174 175.724 205.832 175.761 206.498 175.761H206.608H210.427H212.51H222.489H223.237C223.687 175.761 224.129 175.724 224.571 175.693C226.444 175.562 228.238 175.159 229.923 174.523C230.741 174.214 231.541 173.869 232.301 173.455L232.31 173.452C233.261 173.389 234.21 173.324 235.148 173.252C235.16 173.265 235.17 173.282 235.183 173.295C235.679 173.823 236.05 174.461 236.281 175.166C236.44 175.654 236.549 176.166 236.549 176.707V188.28C236.549 190.18 237.167 191.935 238.203 193.37C238.636 193.969 239.137 194.515 239.705 194.987C239.817 195.08 239.936 195.163 240.053 195.25C240.687 195.726 241.385 196.116 242.136 196.407C243.11 196.784 244.165 196.999 245.272 196.999C246.13 196.999 246.957 196.87 247.741 196.638C248.482 196.418 249.179 196.1 249.824 195.703C252.319 194.167 253.992 191.418 253.992 188.28V170.993C254.252 170.949 254.511 170.905 254.77 170.86C255.472 170.739 256.163 170.613 256.852 170.486C259.048 170.08 261.172 169.643 263.224 169.177C264.252 168.944 265.259 168.702 266.248 168.454C269.774 167.57 273.062 166.597 276.065 165.54C277.052 165.193 278.002 164.835 278.928 164.47C283.957 162.489 288.061 160.259 291.058 157.84C292.554 156.633 294.774 157.703 294.774 159.625V191.622ZM150.284 139.27V142.111C150.284 147.634 154.761 152.111 160.284 152.111H162.867V152.908C162.867 155.924 163.575 158.775 164.831 161.309C166.002 163.67 163.89 166.287 161.35 165.583C145.531 161.198 135.455 154.972 135.455 148.19C135.455 144.021 139.271 140.064 145.881 136.613C147.881 135.569 150.284 137.013 150.284 139.27ZM193.104 171.908C191.919 173.163 191.187 174.849 191.187 176.707V188.041C191.187 191.457 188.738 194.506 185.35 194.942C181.251 195.469 177.743 192.276 177.743 188.28V174.877C177.743 173.186 179.143 171.782 180.831 171.879C181.174 171.898 181.519 171.908 181.867 171.908H193.104ZM232.326 163.266C233.351 161.544 234.12 159.324 234.12 156.54C234.121 152.751 236.179 149.176 239.665 147.691C246.946 144.59 253.971 150.124 253.564 157.117C253.262 162.315 248.735 166.269 243.529 166.269H234.05C232.505 166.269 231.536 164.593 232.326 163.266ZM236.632 171.908H247.867C248.216 171.908 248.561 171.898 248.904 171.879C250.592 171.782 251.992 173.186 251.992 174.877V188.041C251.992 191.457 249.543 194.506 246.156 194.942C242.057 195.47 238.549 192.277 238.549 188.28V176.707C238.549 174.849 237.816 173.163 236.632 171.908ZM152.284 131.569C152.284 127.151 155.866 123.569 160.284 123.569H167.277C167.829 123.569 168.277 123.121 168.277 122.569C168.277 122.017 167.829 121.569 167.277 121.569H166.861C165.819 121.569 165.004 120.623 165.206 119.602C166.749 111.806 173.626 105.908 181.867 105.908H247.867C256.109 105.908 262.986 111.806 264.529 119.602C264.731 120.623 263.916 121.569 262.874 121.569C262.322 121.569 261.874 122.017 261.874 122.569C261.874 123.121 262.322 123.569 262.874 123.569H269.867C274.286 123.569 277.867 127.151 277.867 131.569V142.111C277.867 146.529 274.286 150.111 269.867 150.111H262.874C262.322 150.111 261.874 150.558 261.874 151.111C261.874 151.663 262.322 152.111 262.874 152.111H264.07C264.51 152.111 264.867 152.468 264.867 152.908C264.867 162.297 257.256 169.908 247.867 169.908H236.921C237.419 169.39 237.883 168.841 238.32 168.269H243.507C249.612 168.269 254.955 163.747 255.528 157.67C256.184 150.696 250.692 144.809 243.851 144.809H243.766C242.926 144.81 242.237 144.122 242.237 143.281V142.19C242.237 137.771 238.656 134.19 234.237 134.19H229.166C228.614 134.19 228.166 134.637 228.166 135.19C228.166 135.742 228.614 136.19 229.166 136.19H234.237C237.551 136.19 240.237 138.876 240.237 142.19V143.398C239.665 144.348 239.217 145.094 238.645 146.044C234.783 147.965 232.12 151.942 232.12 156.539C232.12 160.201 230.556 162.701 229.052 164.268C227.718 165.656 226.429 166.314 226.32 166.368C225.9 166.571 225.676 167.037 225.78 167.492C225.868 167.881 226.182 168.16 226.562 168.236C226.626 168.248 226.687 168.269 226.754 168.269H235.713C232.605 171.636 228.17 173.761 223.237 173.761H206.498C197.11 173.761 189.498 166.149 189.498 156.761V146.056V142.19C189.498 138.876 192.185 136.19 195.498 136.19H222.919C223.471 136.19 223.919 135.742 223.919 135.19C223.919 134.637 223.471 134.19 222.919 134.19H195.498C191.08 134.19 187.498 137.771 187.498 142.19V156.761C187.498 161.109 188.974 165.114 191.444 168.317C191.944 168.967 191.459 169.908 190.639 169.908H181.867C172.479 169.908 164.867 162.297 164.867 152.908C164.867 152.468 165.225 152.111 165.665 152.111H167.277C167.829 152.111 168.277 151.663 168.277 151.111C168.277 150.558 167.829 150.111 167.277 150.111H160.284C155.866 150.111 152.284 146.529 152.284 142.111V131.569ZM168.867 108.361C168.867 101.192 174.699 95.361 181.867 95.361H247.867C255.036 95.361 260.867 101.192 260.867 108.361V109.09C257.465 105.887 252.898 103.908 247.867 103.908H181.867C176.837 103.908 172.27 105.887 168.867 109.09V108.361ZM349.369 86.895C346.006 87.948 342.475 87.349 339.692 85.304C339.356 85.057 339.215 84.607 339.35 84.212C340.471 80.946 343.03 78.441 346.392 77.388C349.756 76.337 353.287 76.935 356.069 78.979C356.406 79.226 356.547 79.677 356.411 80.072C355.29 83.338 352.731 85.843 349.369 86.895ZM353.121 72.531C353.734 72.93 354.276 73.401 354.742 73.927C355.406 74.678 354.612 75.823 353.658 75.51C351.39 74.764 348.933 74.67 346.522 75.278C346.123 74.475 345.855 73.606 345.745 72.697C345.683 72.189 345.995 71.725 346.484 71.574C348.712 70.891 351.111 71.221 353.121 72.531ZM420.115 191.999H369.92C363.845 191.999 358.92 187.074 358.92 180.999V175.853C359.383 175.882 359.838 175.896 360.268 175.896C361.453 175.896 362.462 175.803 363.002 175.718C370.032 174.613 373.916 169.362 374.646 164.648C374.744 164.015 374.778 163.422 374.752 162.879C374.688 161.519 375.395 160.251 376.521 159.485C376.883 159.24 377.238 158.984 377.585 158.715C383.041 154.505 385.16 148.922 383.399 143.397C382.098 139.311 379.133 135.663 375.05 133.125C371.03 130.626 366.544 129.73 362.748 130.665L362.706 130.675C360.782 131.153 358.92 129.697 358.92 127.713V42.886C360.622 45.179 363.059 46.863 365.956 47.629C367.076 47.926 368.204 48.071 369.319 48.071C372.7 48.071 375.949 46.734 378.422 44.236C378.676 43.98 378.777 43.597 378.684 43.249C377.47 38.736 374.048 35.328 369.53 34.133C366.832 33.419 364.087 33.585 361.612 34.54C360.312 35.042 358.92 34.064 358.92 32.671V30.999C358.92 30.447 358.472 29.999 357.92 29.999C357.367 29.999 356.92 30.447 356.92 30.999V69.431C356.92 70.804 355.395 71.629 354.245 70.877L354.213 70.856C351.193 68.886 347.473 68.688 344.261 70.326C343.941 70.49 343.724 70.822 343.704 71.18C343.61 72.865 343.943 74.481 344.618 75.934C340.77 77.552 337.976 80.848 337.056 84.995C336.978 85.346 337.096 85.724 337.361 85.969C339.798 88.22 342.878 89.407 346.057 89.407C347.356 89.407 348.672 89.209 349.966 88.804C351.523 88.317 352.929 87.563 354.145 86.594C355.268 85.7 356.92 86.469 356.92 87.904V166.273C355.868 167.687 355.128 168.683 354.077 170.097C353.535 170.254 353.073 170.521 352.775 170.982C352.521 171.375 352.309 172.053 352.737 173.05C353.099 173.892 353.819 174.497 354.721 174.927C356.084 175.574 356.92 176.985 356.92 178.494V184.999C356.92 188.865 353.786 191.999 349.92 191.999H327.136C326.092 191.999 325.233 191.196 325.149 190.155C325.038 188.783 324.816 187.425 324.48 186.09H325.536C326.527 186.09 327.329 185.287 327.329 184.296V180.843C327.329 177.602 324.703 174.976 321.463 174.976H321.462C318.222 174.976 315.596 177.602 315.596 180.843V184.297C315.596 185.287 316.398 186.09 317.388 186.09H318.445C318.109 187.424 317.887 188.782 317.776 190.155C317.692 191.196 316.833 191.999 315.789 191.999H304.745C300.328 191.999 296.749 188.42 296.752 184.003C296.761 171.365 296.774 148.19 296.774 148.19C296.774 142.142 290.496 136.646 279.867 132.29V131.569C279.867 126.046 275.39 121.569 269.867 121.569H269.451C268.025 121.569 266.759 120.586 266.48 119.188C265.896 116.257 264.637 113.569 262.867 111.289V108.361C262.867 100.076 256.152 93.361 247.867 93.361H181.867C173.583 93.361 166.867 100.076 166.867 108.361V111.289C166.466 111.807 166.093 112.345 165.746 112.903C165.587 113.157 165.424 113.41 165.277 113.673C164.336 115.357 163.65 117.199 163.261 119.148C162.978 120.561 161.725 121.569 160.284 121.569C154.761 121.569 150.284 126.046 150.284 131.569V132.322C139.701 136.672 133.455 142.157 133.455 148.19C133.455 148.19 133.468 171.366 133.476 184.005C133.479 188.42 129.901 191.999 125.485 191.999H118.073C117.746 191.999 117.471 192.166 117.288 192.407C117.161 192.575 117.073 192.773 117.073 192.999C117.073 193.552 117.52 193.999 118.073 193.999H133.799C137.482 207.321 171.864 217.441 215.115 217.441C258.365 217.441 292.746 207.321 296.429 193.999H319.479H323.446H420.115C420.667 193.999 421.115 193.552 421.115 192.999C421.115 192.447 420.667 191.999 420.115 191.999ZM101.684 32.012C104.332 32.157 106.686 33.576 108.06 35.887C108.69 36.945 109.057 38.095 109.161 39.26C109.385 41.777 106.611 43.447 104.503 42.055C103.52 41.406 102.678 40.53 102.045 39.465C100.67 37.155 100.547 34.409 101.684 32.012ZM53.1753 182.138H51.7253V179.255C51.7253 177.238 53.3663 175.596 55.3843 175.596C57.4013 175.596 59.0423 177.238 59.0423 179.255V182.138H57.5923H53.1753ZM55.7263 191.999H55.0403C54.5623 191.999 54.1753 191.612 54.1753 191.134V184.138H56.5923V191.134C56.5923 191.612 56.2043 191.999 55.7263 191.999ZM42.7093 191.999H42.1943C41.7173 191.999 41.3293 191.612 41.3293 191.134V174.597H43.5743V191.134C43.5743 191.612 43.1863 191.999 42.7093 191.999ZM38.2293 171.427V165.548C38.2293 163.22 40.1233 161.326 42.4523 161.326C44.7803 161.326 46.6733 163.22 46.6733 165.548V172.597H39.4633C39.1123 172.148 38.6983 171.753 38.2293 171.427ZM38.4643 191.999C37.9873 191.999 37.5983 191.612 37.5983 191.134V180.954H39.3293V191.134C39.3293 191.612 38.9413 191.999 38.4643 191.999ZM33.4143 178.954H31.3473V176.071C31.3473 174.054 32.9893 172.413 35.0063 172.413C37.0233 172.413 38.6643 174.054 38.6643 176.071V178.954H36.5983H33.4143ZM34.4143 191.999H35.5983V180.954H34.4143V191.999ZM79.7703 87.983C76.5513 86.041 74.6133 82.711 74.5053 78.99C77.8473 77.35 81.6983 77.512 84.9153 79.453C87.2853 80.882 88.9603 83.064 89.7233 85.599C90.2383 87.314 89.0883 89.068 87.3273 89.392C84.7663 89.863 82.1023 89.39 79.7703 87.983ZM112.075 191.999H102.725H102.381V42.927C102.495 43.026 102.606 43.13 102.725 43.223C104.444 44.585 106.579 45.352 108.871 45.352C108.927 45.352 108.983 45.352 109.039 45.351C109.394 45.345 109.719 45.152 109.894 44.843C111.668 41.698 111.625 37.968 109.78 34.865C108.164 32.149 105.461 30.446 102.395 30.086C102.39 30.079 102.387 30.075 102.381 30.069V20.999C102.381 20.447 101.933 19.999 101.381 19.999C100.829 19.999 100.381 20.447 100.381 20.999V30.291C100.315 30.355 100.258 30.428 100.211 30.51C98.4373 33.654 98.4803 37.385 100.326 40.488C100.342 40.516 100.364 40.54 100.381 40.568V40.999V187.999C100.381 190.208 98.5903 191.999 96.3813 191.999C94.1723 191.999 92.3813 190.208 92.3813 187.999V40.999V37.676C92.3813 37.124 91.9333 36.676 91.3813 36.676C90.8293 36.676 90.3813 37.124 90.3813 37.676V82.178C89.3183 80.397 87.8193 78.869 85.9493 77.741C81.9453 75.325 77.1143 75.238 73.0253 77.508C72.7143 77.681 72.5123 78.016 72.5043 78.371C72.4023 83.047 74.7323 87.28 78.7373 89.696C80.8083 90.945 83.0993 91.571 85.3943 91.571H85.4463C88.1453 91.559 90.3813 93.637 90.3813 96.336V189.999C90.3813 191.104 89.4853 191.999 88.3813 191.999H59.4573C58.9793 191.999 58.5923 191.612 58.5923 191.134V184.138H60.0423C60.5943 184.138 61.0423 183.69 61.0423 183.138V179.453C61.0423 176.577 58.9803 174.011 56.1283 173.644C52.6773 173.201 49.7253 175.89 49.7253 179.255V183.138C49.7253 183.69 50.1723 184.138 50.7253 184.138H52.1753V191.134C52.1753 191.612 51.7873 191.999 51.3093 191.999H46.4393C45.9623 191.999 45.5743 191.612 45.5743 191.134V174.597H47.6733C48.2263 174.597 48.6733 174.149 48.6733 173.597V165.548C48.6733 162.981 47.1113 160.774 44.8873 159.825C44.1603 159.514 43.7253 158.758 43.7253 157.967V90.908C43.7253 90.356 43.2773 89.908 42.7253 89.908C42.1723 89.908 41.7253 90.356 41.7253 90.908V157.802C41.7253 158.643 41.1993 159.399 40.4043 159.677C37.9763 160.524 36.2293 162.835 36.2293 165.548V170.55C35.3713 170.36 34.4453 170.348 33.4783 170.637C30.9673 171.387 29.3473 173.839 29.3473 176.459V179.954C29.3473 180.506 29.7953 180.954 30.3473 180.954H32.4143V191.134C32.4143 191.612 32.0263 191.999 31.5493 191.999H10.1143C9.56226 191.999 9.11426 192.447 9.11426 192.999C9.11426 193.552 9.56226 193.999 10.1143 193.999H112.075C112.627 193.999 113.075 193.552 113.075 192.999C113.075 192.773 112.986 192.575 112.859 192.408C112.677 192.166 112.401 191.999 112.075 191.999Z" fill="#202225"/>
<path fill-rule="evenodd" clip-rule="evenodd" d="M208.602 66.7771C210.188 64.9291 212.496 63.8691 214.931 63.8691C217.367 63.8691 219.674 64.9291 221.26 66.7771C223.51 69.3981 223.906 73.1941 222.245 76.2221L215.686 88.1831C215.465 88.5861 215.084 88.6301 214.931 88.6301C214.778 88.6301 214.397 88.5861 214.176 88.1831L207.617 76.2221C205.956 73.1941 206.352 69.3981 208.602 66.7771ZM212.422 89.1451C212.933 90.0751 213.871 90.6301 214.932 90.6301C215.992 90.6301 216.93 90.0741 217.44 89.1451L223.999 77.1841C226.058 73.4291 225.567 68.7231 222.778 65.4741C220.81 63.1831 217.951 61.8691 214.931 61.8691C211.912 61.8691 209.052 63.1831 207.084 65.4741C204.295 68.7241 203.804 73.4291 205.863 77.1841L212.422 89.1451ZM177.869 144.552C179.911 144.552 181.954 143.852 183.402 142.452C183.998 141.877 184.014 140.927 183.438 140.331C182.862 139.735 181.912 139.72 181.317 140.295C179.577 141.977 176.161 141.978 174.421 140.295C173.827 139.72 172.876 139.735 172.3 140.331C171.724 140.927 171.741 141.876 172.336 142.452C173.784 143.852 175.826 144.552 177.869 144.552ZM251.867 144.551C253.909 144.551 255.952 143.851 257.4 142.452C257.995 141.876 258.012 140.926 257.436 140.331C256.859 139.734 255.909 139.719 255.315 140.295C253.575 141.978 250.159 141.977 248.419 140.295C247.824 139.719 246.874 139.734 246.298 140.331C245.722 140.926 245.738 141.876 246.334 142.452C247.782 143.851 249.824 144.551 251.867 144.551ZM384.361 116.338H384.871C385.423 116.338 385.871 116.786 385.871 117.338V117.848C385.871 118.401 386.319 118.848 386.871 118.848C387.424 118.848 387.871 118.401 387.871 117.848V117.338C387.871 116.786 388.319 116.338 388.871 116.338H389.382C389.934 116.338 390.382 115.89 390.382 115.338C390.382 114.786 389.934 114.338 389.382 114.338H388.871C388.319 114.338 387.871 113.89 387.871 113.338V112.828C387.871 112.276 387.424 111.828 386.871 111.828C386.319 111.828 385.871 112.276 385.871 112.828V113.338C385.871 113.89 385.423 114.338 384.871 114.338H384.361C383.809 114.338 383.361 114.786 383.361 115.338C383.361 115.89 383.809 116.338 384.361 116.338ZM146.675 68.0393C147.509 68.0393 148.185 68.7153 148.185 69.5493C148.185 70.1023 148.633 70.5493 149.185 70.5493C149.738 70.5493 150.185 70.1023 150.185 69.5493C150.185 68.7153 150.861 68.0393 151.695 68.0393C152.247 68.0393 152.695 67.5913 152.695 67.0393C152.695 66.4873 152.247 66.0393 151.695 66.0393C150.861 66.0393 150.185 65.3633 150.185 64.5293C150.185 63.9773 149.738 63.5293 149.185 63.5293C148.633 63.5293 148.185 63.9773 148.185 64.5293C148.185 65.3633 147.509 66.0393 146.675 66.0393C146.123 66.0393 145.675 66.4873 145.675 67.0393C145.675 67.5913 146.123 68.0393 146.675 68.0393ZM171.411 76.4636C172.245 76.4636 172.921 77.1396 172.921 77.9736C172.921 78.5256 173.369 78.9736 173.921 78.9736C174.473 78.9736 174.921 78.5256 174.921 77.9736C174.921 77.1396 175.597 76.4636 176.431 76.4636C176.983 76.4636 177.431 76.0156 177.431 75.4636C177.431 74.9116 176.983 74.4636 176.431 74.4636C175.597 74.4636 174.921 73.7876 174.921 72.9536C174.921 72.4016 174.473 71.9536 173.921 71.9536C173.369 71.9536 172.921 72.4016 172.921 72.9536C172.921 73.7876 172.245 74.4636 171.411 74.4636C170.859 74.4636 170.411 74.9116 170.411 75.4636C170.411 76.0156 170.859 76.4636 171.411 76.4636ZM141.752 93.2303C142.008 93.2303 142.264 93.1323 142.459 92.9373L143.642 91.7543C144.033 91.3633 144.033 90.7303 143.642 90.3403C143.252 89.9493 142.619 89.9493 142.228 90.3403L141.045 91.5233C140.654 91.9143 140.654 92.5463 141.045 92.9373C141.24 93.1323 141.496 93.2303 141.752 93.2303ZM135.835 99.1468C136.091 99.1468 136.347 99.0488 136.542 98.8538L137.726 97.6698C138.116 97.2798 138.116 96.6468 137.726 96.2558C137.335 95.8658 136.702 95.8658 136.312 96.2558L135.128 97.4398C134.737 97.8308 134.737 98.4628 135.128 98.8538C135.323 99.0488 135.579 99.1468 135.835 99.1468ZM142.228 98.8538C142.423 99.0488 142.679 99.1468 142.935 99.1468C143.191 99.1468 143.447 99.0488 143.642 98.8538C144.033 98.4638 144.033 97.8308 143.642 97.4398L142.459 96.2558C142.068 95.8658 141.436 95.8658 141.045 96.2558C140.654 96.6458 140.654 97.2798 141.045 97.6698L142.228 98.8538ZM136.312 92.9373C136.507 93.1323 136.763 93.2303 137.019 93.2303C137.275 93.2303 137.531 93.1323 137.726 92.9373C138.117 92.5463 138.117 91.9133 137.726 91.5233L136.542 90.3403C136.152 89.9493 135.518 89.9493 135.128 90.3403C134.738 90.7303 134.738 91.3643 135.128 91.7543L136.312 92.9373ZM376.114 102.957C375.281 102.957 374.605 102.279 374.605 101.447C374.605 100.614 375.281 99.9368 376.114 99.9368C376.947 99.9368 377.624 100.614 377.624 101.447C377.624 102.279 376.947 102.957 376.114 102.957ZM376.114 97.9368C374.179 97.9368 372.605 99.5118 372.605 101.447C372.605 103.382 374.179 104.957 376.114 104.957C378.05 104.957 379.624 103.382 379.624 101.447C379.624 99.5118 378.05 97.9368 376.114 97.9368Z" fill="#202225"/>
</g>
<defs>
<clipPath id="clip0_1_10871">
<rect width="421" height="218" fill="white" transform="translate(0.5)"/>
</clipPath>
</defs>
</svg>
