<svg width="24" height="24" viewBox="0 0 24 24" fill="none" xmlns="http://www.w3.org/2000/svg">
<path d="M21.731 2.26906C21.2387 1.77687 20.5711 1.50037 19.875 1.50037C19.1789 1.50037 18.5113 1.77687 18.019 2.26906L16.862 3.42606L20.574 7.13806L21.731 5.98106C22.2232 5.48879 22.4997 4.82117 22.4997 4.12506C22.4997 3.42894 22.2232 2.76133 21.731 2.26906ZM19.513 8.19906L15.801 4.48706L3.65101 16.6371C3.03386 17.2539 2.58019 18.0148 2.33101 18.8511L1.53101 21.5361C1.49239 21.6656 1.48951 21.8032 1.52267 21.9343C1.55584 22.0654 1.62382 22.185 1.71943 22.2806C1.81503 22.3762 1.9347 22.4442 2.06577 22.4774C2.19684 22.5106 2.33444 22.5077 2.46401 22.4691L5.14901 21.6691C5.98524 21.4199 6.74617 20.9662 7.36301 20.3491L19.513 8.19906Z" fill="black"/>
</svg>
